<?xml version="1.0" encoding="utf-8"?>
<!-- Generator: Adobe Illustrator 15.0.0, SVG Export Plug-In . SVG Version: 6.00 Build 0)  -->
<!DOCTYPE svg PUBLIC "-//W3C//DTD SVG 1.1//EN" "http://www.w3.org/Graphics/SVG/1.1/DTD/svg11.dtd">
<svg version="1.1" id="Ebene_2" xmlns="http://www.w3.org/2000/svg" xmlns:xlink="http://www.w3.org/1999/xlink" x="0px" y="0px"
	 width="75px" height="75px" viewBox="0 0 75 75" enable-background="new 0 0 75 75" xml:space="preserve">
<g id="_x3C_Gruppe_x3E_">
	<g id="signal">
		<path id="first" fill="#7D7D7D" d="M18.908,34.134c0,0.011,0,0.023,0,0.035h4.269c0-0.012-0.001-0.024-0.001-0.035
			c0-6.362,5.176-11.537,11.537-11.537c0.011,0,0.023,0.001,0.035,0.001V18.33c-0.012,0-0.024-0.002-0.035-0.002
			C25.998,18.329,18.908,25.419,18.908,34.134z"/>
		<path id="second" fill="#7D7D7D" d="M34.712,10c-13.309,0-24.135,10.826-24.135,24.135c0,0.011,0.001,0.023,0.001,0.035h4.268
			c0-0.012,0-0.024,0-0.035c0-10.954,8.912-19.866,19.866-19.866c0.011,0,0.023,0.002,0.035,0.002V10C34.736,10,34.723,10,34.712,10
			z"/>
		<circle id="point" fill="#7D7D7D" cx="31.596" cy="31.018" r="3.152"/>
	</g>
	<path fill="#7D7D7D" d="M59.475,51.498l-0.641,1.204c-1.122,2.104-2.545,3.712-4.23,4.778c-1.67,1.059-3.619,1.596-5.789,1.596
		c-3.137,0-5.657-1.035-7.705-3.166c-2.062-2.143-3.061-4.803-3.061-8.128c0-3.327,1-5.992,3.062-8.146
		c2.045-2.14,4.563-3.181,7.703-3.181c2.021,0,3.873,0.473,5.498,1.402c1.631,0.932,2.846,2.185,3.711,3.833l0.623,1.188l5.19-3.701
		l-0.599-0.937c-1.566-2.46-3.631-4.38-6.131-5.708c-2.492-1.326-5.282-1.998-8.299-1.998c-4.873,0-8.975,1.645-12.187,4.887
		c-3.211,3.239-4.838,7.396-4.838,12.361c0,4.938,1.622,9.09,4.822,12.33C39.818,63.355,43.922,65,48.814,65
		c3.307,0,6.309-0.777,8.923-2.312c2.622-1.539,4.716-3.765,6.22-6.61l0.467-0.89L59.475,51.498z"/>
	<path fill="#F9BD00" d="M55.648,51.583c-0.463-0.803-2.266-1.411-3.197-2.207c-0.777-0.66-1.094-1.408-0.688-2.205
		c-1.215,0.488-1.37,1.472-1.239,2.185c-0.752-0.445-1.601-1.192-0.824-2.134c2.77-3.353,2.578-5.079-1.164-7.609
		c1.236,1.239,1.281,3.443-0.268,4.239c-6.34,3.26-7.443,4.729-7.609,7.562c-0.09,1.484,0.549,2.553,1.544,3.357
		c1.561,1.399,5.539,4.084,11.055,1.477c0.123-0.046,0.237-0.093,0.333-0.137c0.115-0.064,0.229-0.131,0.342-0.2
		c0.014-0.006,0.021-0.017,0.032-0.021c0.021-0.012,0.036-0.021,0.06-0.026l-0.004-0.01C55.811,54.625,56.468,53.129,55.648,51.583z
		"/>
	<path fill="#FFFFFF" d="M46.667,57.547c0,0-5.414-1.63-3.095-6.641c0.871-1.881,2.988-3.01,4.652-3.853
		c0,0-3.188,4.107,0.172,5.572c2.36,1.031,1.039-2.354,1.039-2.354s5.297,5.748,1.487,6.818c-3.808,1.074-4.12,0.521-4.12,0.521"/>
	
		<ellipse transform="matrix(0.5146 0.8574 -0.8574 0.5146 67.6794 -15.0407)" fill="#F9BD00" cx="47.125" cy="52.258" rx="0.54" ry="0.332"/>
	<path fill="#F9BD00" d="M50.523,49.355c0,0-1.211-0.781,0.106-3.368c1.322-2.587-0.306-2.679-0.306-2.679l-1.666,3.801
		c0,0,0.055,1.828,0.163,1.918c0.106,0.09,1.446,1.248,1.52,1.156C50.416,50.094,50.523,49.355,50.523,49.355z"/>
</g>
</svg>
